<svg xmlns="http://www.w3.org/2000/svg" width="47" height="40" fill="none" xmlns:v="https://vecta.io/nano"><path d="M4.203 36.067c.201 1.949 1.946 3.365 3.895 3.162l32.388-3.383c1.622-.169 2.919-1.423 3.143-3.038l3.197-22.996c.271-1.952-1.102-3.751-3.056-4.004L4.938.782C2.67.489.722 2.388.957 4.663l3.246 31.405z" fill="#002eff"/><g fill-rule="evenodd"><path d="M31.878 11.202a1.03 1.03 0 0 0-1.166.076l-1.933 1.684c-.304.264-.278.667.052.9 0 0 2.986 2.078 2.986 6.55 0 4.24-3.147 6.683-3.147 6.683-.317.246-.331.663-.027.927l1.918 1.656c.303.265.83.297 1.169.082 0 0 4.509-2.914 4.509-9.334 0-6.376-4.362-9.225-4.362-9.225z" fill="#ff3d00"/><path d="M14.751 21.805s-.539-.052-.539.385c0 2.466 1.829 4.223 4.702 4.223 2.132 0 3.043-.516 4.331-1.485.301-.227.622-.439.866-.171.17.183 2.432 2.282 2.432 2.282.284.267.206.586-.098.842s-3.685 2.898-7.573 2.898c-5.085 0-9.967-2.224-9.967-10.599 0-6.752 3.806-10.563 9.389-10.563 5.997 0 9.387 4.209 9.387 9.886v1.436c0 .586-.473.867-.862.867H14.751zm7.14-5.757c-.578-1.229-1.776-2.145-3.597-2.145s-3.018.916-3.597 2.145a5.52 5.52 0 0 0-.498 2.223h8.19c-.042-.912-.167-1.468-.498-2.223z" fill="#fff"/></g></svg>